<?xml version="1.0" encoding="UTF-8"?>
<svg version="1.1" xmlns="http://www.w3.org/2000/svg" width="2000" height="2000">
<path d="M0 0 C26.158392 22.86472585 38.1394198 75.96450516 43.140625 108.87109375 C43.42873047 110.711875 43.42873047 110.711875 43.72265625 112.58984375 C48.22036804 150.619814 38.48576869 185.40658705 15.5390625 215.63671875 C-1.50289735 238.19324444 -1.50289735 238.19324444 -5.54296875 265.17578125 C-3.36314558 273.77051261 1.74576931 279.15281672 8.97265625 284 C20.05736329 290.54694781 31.97455743 294.80581046 44.140625 298.87109375 C45.79655172 289.13851798 46.77639348 281.24174766 41.2277832 272.65014648 C39.25380799 269.89338276 37.21586514 267.1955523 35.05273438 264.58422852 C34.140625 262.87109375 34.140625 262.87109375 34.31054688 260.79663086 C35.66957091 257.64409481 38.24593215 256.52520395 41.140625 254.87109375 C41.800625 254.87109375 42.460625 254.87109375 43.140625 254.87109375 C47.100625 264.27609375 47.100625 264.27609375 51.140625 273.87109375 C54.97040427 274.11868753 54.97040427 274.11868753 57.640625 272.87109375 C63.797354 271.11202832 70.52090417 270.4564445 76.265625 273.55859375 C80.166017 278.36907722 81.19021365 283.76177152 81.140625 289.87109375 C80.38286106 294.89026133 78.95453299 298.03868785 75.390625 301.68359375 C69.38724934 305.40982692 60.21402707 307.87109375 53.140625 307.87109375 C54.70717491 312.74643492 56.28868932 317.61659486 57.88305664 322.48291016 C58.42117255 324.13202156 58.95548321 325.78238052 59.4855957 327.43408203 C64.90038174 346.8817047 64.90038174 346.8817047 77.140625 361.87109375 C80.49158036 361.95486763 81.86310349 361.08288648 84.515625 359.05859375 C88.59310436 354.68149131 91.26390964 349.06907798 94.140625 343.87109375 C93.25310547 343.72414063 93.25310547 343.72414063 92.34765625 343.57421875 C87.29228352 342.61757399 83.89295765 341.6234264 80.140625 337.87109375 C78.72020679 335.03025734 78.82610228 333.01632097 79.140625 329.87109375 C82.11100194 325.35095493 87.10208988 324.09593102 92.140625 322.87109375 C93.130625 322.87109375 94.120625 322.87109375 95.140625 322.87109375 C95.17929688 321.81921875 95.17929688 321.81921875 95.21875 320.74609375 C95.58656658 314.59352557 96.00614277 308.73029844 100.140625 303.87109375 C103.91988117 301.36528259 107.34325918 300.88460842 111.828125 300.80859375 C115.24115292 301.90333855 117.13290623 303.07336765 119.26171875 305.99609375 C121.44992669 310.66427068 120.65632405 315.32399661 119.078125 320.05859375 C115.81140982 324.80059966 111.98910826 328.01531446 106.765625 330.43359375 C105.899375 330.90796875 105.033125 331.38234375 104.140625 331.87109375 C103.43734288 334.41246666 103.43734288 334.41246666 103.140625 336.87109375 C103.83542969 336.86207031 104.53023437 336.85304688 105.24609375 336.84375 C120.16777451 337.27872929 134.00560409 343.52566974 147.640625 349.12109375 C162.12602901 355.05198162 174.73186777 358.23594986 189.9453125 353.21875 C194.89076063 351.13295586 198.93885854 348.16437016 203.140625 344.87109375 C204.130625 344.21109375 205.120625 343.55109375 206.140625 342.87109375 C206.87027866 340.30826633 206.87027866 340.30826633 207.140625 337.87109375 C215.22010191 337.26132191 221.95759206 339.45423027 228.953125 343.49609375 C236.15306562 351.31317214 239.34392184 361.25741526 242.70703125 371.125 C245.26515797 378.32259668 248.07321057 384.95301639 254.44921875 389.52734375 C262.73282142 392.81038628 269.1339732 392.30770439 277.53515625 389.3125 C280.44776494 387.70117675 281.09932867 386.98853177 282.078125 383.87109375 C282.43870849 382.20580358 282.79222313 380.53897502 283.140625 378.87109375 C286.16646159 369.83995697 289.24405161 364.2848994 297.515625 359.49609375 C302.01407809 358.42503349 306.77480539 357.56788803 310.984375 359.88671875 C314.07106391 362.39843619 316.85841424 365.02359772 317.4765625 369.0703125 C317.57317052 375.22424327 316.85648491 379.85299894 313.140625 384.87109375 C306.9534161 391.05830265 298.42861385 392.09012136 290.140625 393.87109375 C290.6253125 394.24878906 291.11 394.62648438 291.609375 395.015625 C300.94323294 402.68015835 308.96178485 412.77718402 310.55078125 425.03515625 C310.95855292 433.96431015 308.92859395 440.21084197 303.30859375 447.125 C297.59882033 453.24020111 291.11068404 457.29119948 282.6875 458.109375 C269.07245916 458.47066798 256.64926686 453.76785229 243.96630859 449.38427734 C236.12052057 446.73142659 228.32935764 445.08724216 220.140625 443.87109375 C219.08026591 448.18827003 218.99100754 452.38975886 219.015625 456.80859375 C219.01175781 457.49888672 219.00789063 458.18917969 219.00390625 458.90039062 C219.01169785 463.01045797 219.44179275 466.83163157 220.140625 470.87109375 C220.85994504 480.69495028 220.84673147 488.39344985 215.140625 496.87109375 C228.66004527 496.06516706 240.79120225 492.08305391 253.53198242 487.68725586 C260.96149498 485.36279536 268.83926411 484.51568169 276.11865234 487.75927734 C283.7359085 491.94775652 287.48019246 499.49447963 291.203125 506.99609375 C291.72044189 508.01421143 292.23775879 509.0323291 292.77075195 510.08129883 C305.29047508 534.8623421 305.29047508 534.8623421 304.140625 547.87109375 C297.84642912 564.7509827 271.77615796 577.34637472 256.25488281 584.7734375 C243.16912848 590.74841633 229.85279748 594.18458374 215.453125 594.30859375 C214.61563721 594.31874512 213.77814941 594.32889648 212.9152832 594.33935547 C207.93974024 594.26782291 204.4414028 593.62359155 200.140625 590.87109375 C196.43155449 586.20484375 196.9918043 581.83243759 197.6171875 576.2109375 C198.34521698 571.56567475 199.39419684 567.01186719 200.44140625 562.4296875 C201.52022318 556.93917227 201.84016752 551.44823707 202.140625 545.87109375 C201.22563232 546.19215088 200.31063965 546.51320801 199.36791992 546.84399414 C189.09413325 550.31958375 178.8912384 552.29102736 168.18182373 553.89596558 C138.39741566 558.39990211 108.95298984 563.59001693 89.3359375 588.7265625 C82.35227396 598.7298528 77.07407516 609.32770232 73.140625 620.87109375 C71.140625 619.87109375 71.140625 619.87109375 69.87890625 616.21484375 C69.39927483 614.60155348 68.92434478 612.98686097 68.453125 611.37109375 C60.08157747 583.66962775 60.08157747 583.66962775 40.5859375 563.375 C30.81433588 558.37590526 21.69859426 557.13060932 11.015625 560.49609375 C2.19567885 563.82089021 -5.37180916 568.43491993 -12.921875 573.99609375 C-26.60455397 584.05398798 -26.60455397 584.05398798 -34.859375 582.87109375 C-37.296875 581 -37.296875 581 -39.859375 578.43359375 C-51.37837405 567.36814539 -65.38036611 557.31494849 -81.91796875 557.53515625 C-89.5341455 558.40499848 -95.69932165 562.77754823 -100.81640625 568.29296875 C-108.19892338 577.60933837 -113.70661816 588.34138404 -119.484375 598.68359375 C-123.84602533 606.47770341 -128.15808282 613.96513523 -133.859375 620.87109375 C-134.51679687 621.68964844 -135.17421875 622.50820312 -135.8515625 623.3515625 C-147.3980253 636.99161471 -162.72326488 645.78550786 -177.859375 654.87109375 C-202.02721831 668.96001903 -202.02721831 668.96001903 -222.359375 687.87109375 C-225.04053614 691.08848712 -226.79425724 692.45324891 -230.8671875 693.27734375 C-238.69578509 693.62399752 -244.18420906 690.2108562 -249.87109375 685.04296875 C-257.78568387 676.59616107 -261.40718834 665.32446228 -265.421875 654.68359375 C-265.89044922 653.47123047 -266.35902344 652.25886719 -266.84179688 651.00976562 C-272.3809076 636.40665554 -275.41455824 622.55017346 -277.01144409 607.10253906 C-281.16685995 567.33707978 -288.89495318 528.02227336 -320.859375 500.87109375 C-326.44563725 496.61069838 -332.40233675 492.87009649 -338.48046875 489.35546875 C-346.28925806 484.82780375 -347.46636631 478.18798316 -349.69921875 469.89453125 C-350.96337009 466.60007626 -352.05971569 464.99761093 -354.859375 462.87109375 C-359.06157843 461.90076678 -363.00476039 462.58622221 -367.046875 463.93359375 C-378.20229597 471.61843931 -380.81839214 484.53125604 -384.296875 496.87109375 C-390.83038822 519.92017065 -390.83038822 519.92017065 -399.859375 525.87109375 C-403.95576104 527.91928677 -408.42401355 527.51978514 -412.859375 526.87109375 C-421.09471194 523.72411354 -429.57577719 519.57758395 -434.734375 512.18359375 C-436.93023645 505.7180017 -436.75340749 500.08935274 -433.859375 493.87109375 C-430.80846273 488.37085754 -426.89608817 483.66791927 -422.859375 478.87109375 C-421.35469064 476.99985085 -419.85452923 475.12496012 -418.359375 473.24609375 C-417.19270833 471.78776042 -416.02604167 470.32942708 -414.859375 468.87109375 C-418.56736314 464.43959572 -422.31719269 460.38951071 -426.63671875 456.546875 C-427.859375 454.87109375 -427.859375 454.87109375 -427.73828125 452.7890625 C-426.859375 450.87109375 -426.859375 450.87109375 -423.859375 448.87109375 C-418.803944 448.12521049 -418.803944 448.12521049 -415.859375 448.87109375 C-412.46044779 451.65271033 -410.27539133 455.24706925 -407.859375 458.87109375 C-404.54874497 458.28257754 -402.84644457 457.25802147 -400.42578125 454.94921875 C-399.46248901 454.03873779 -399.46248901 454.03873779 -398.47973633 453.10986328 C-397.80064209 452.45356934 -397.12154785 451.79727539 -396.421875 451.12109375 C-395.71248779 450.44804199 -395.00310059 449.77499023 -394.2722168 449.08154297 C-390.34867099 445.33959802 -386.52205394 441.52021142 -382.75268555 437.6237793 C-371.72858148 426.27278288 -358.82340648 415.98828688 -342.359375 415.55859375 C-332.07419042 415.64715007 -323.06685034 419.67593378 -313.859375 423.87109375 C-314.26663818 423.09733398 -314.67390137 422.32357422 -315.09350586 421.52636719 C-349.66317289 355.69331529 -349.66317289 355.69331529 -350.859375 318.87109375 C-350.91931641 317.37835937 -350.91931641 317.37835937 -350.98046875 315.85546875 C-351.69511486 281.72060759 -337.97959335 243.27783977 -317.859375 215.87109375 C-316.90804687 214.57365234 -316.90804687 214.57365234 -315.9375 213.25 C-291.9973676 182.02575755 -242.00845104 180.38689385 -205.875 173.71875 C-205.12091103 173.57944061 -204.36682205 173.44013123 -203.5898819 173.29660034 C-195.95718491 171.88676442 -188.32375004 170.4814923 -180.68600368 169.09924603 C-165.74118471 166.39141838 -150.85043312 163.54371439 -136.03515625 160.19140625 C-134.18422363 159.77277565 -134.18422363 159.77277565 -132.29589844 159.34568787 C-114.18446505 155.17449711 -96.40528708 149.98863398 -78.859375 143.87109375 C-78.21524198 116.96064749 -83.09673282 90.56427775 -100.23046875 69 C-103.25346426 65.04908261 -104.38042965 61.98735014 -104.23828125 56.8984375 C-103.35874637 52.19247252 -99.90595457 49.60126554 -96.171875 46.99609375 C-90.99596312 45.23823689 -85.99309228 44.55384983 -80.82421875 46.7265625 C-75.97181908 49.9648169 -72.6280547 54.55205451 -69.10546875 59.11328125 C-68.59914917 59.76353271 -68.09282959 60.41378418 -67.57116699 61.08374023 C-66.33101465 62.67728112 -65.09479568 64.27388177 -63.859375 65.87109375 C-63.63797852 64.85909912 -63.41658203 63.84710449 -63.18847656 62.80444336 C-62.34944102 58.97361089 -61.50589705 55.14378187 -60.66113281 51.31420898 C-60.29926568 49.6709159 -59.93854847 48.02736909 -59.57910156 46.38354492 C-50.64494695 5.54347783 -50.64494695 5.54347783 -37.859375 -3.12890625 C-25.62053854 -9.95635634 -11.14094839 -8.1219851 0 0 Z M37.140625 437.87109375 C33.23877998 443.62310942 30.94141049 448.91564956 32.140625 455.87109375 C35.3834168 458.92279246 38.72869978 460.74687394 42.765625 462.55859375 C53.53430249 467.88419425 61.24228958 475.91488526 69.578125 484.37109375 C81.48668572 496.43290883 94.37183791 508.45474116 112.140625 509.87109375 C129.51692806 509.84898649 152.21616109 508.01553273 165.07421875 495.42578125 C172.28090154 486.51619609 172.63909615 475.15672707 171.515625 464.24609375 C170.62330173 458.24263992 169.33100878 453.38477123 165.140625 448.87109375 C160.40715853 445.71544944 155.68584538 446.33970285 150.140625 446.87109375 C146.54854484 447.72745806 143.07119195 448.74946443 139.5625 449.8984375 C131.27800234 452.25327759 122.85541806 452.08800795 114.3046875 452.11132812 C112.14544686 452.12107199 109.98714491 452.15218982 107.828125 452.18359375 C98.79407358 452.25611241 92.46509936 451.86856334 84.89453125 446.62109375 C81.84489244 443.57578067 80.02260396 440.67074366 78.078125 436.87109375 C75.19249862 431.30213232 72.38362195 425.95209273 66.140625 423.87109375 C54.89844107 422.44027034 44.29911581 429.63152474 37.140625 437.87109375 Z " fill="#861F1F" transform="translate(1223.859375,713.12890625)"/>
<path d="M0 0 C3.84601578 2.79894412 7.46645784 5.81606625 11 9 C11.62648438 9.53367187 12.25296875 10.06734375 12.8984375 10.6171875 C24.06775527 20.77570728 30.97191263 35.52455521 32.203125 50.46484375 C32.51912989 67.13410188 27.47698171 82.77783586 16.6875 95.5625 C3.56048229 108.91352826 -15.66027768 114.64842339 -34.06915283 115.07034302 C-37.63236145 115.07888173 -41.19467915 115.05916969 -44.7578125 115.03515625 C-47.43101928 115.03886654 -50.10415411 115.04443273 -52.77734375 115.05273438 C-56.96247196 115.06497884 -61.14657175 115.06647183 -65.33154297 115.02416992 C-68.07714631 114.99717003 -70.82118597 114.9913098 -73.56686401 115.00938416 C-76.14116856 115.02621899 -78.71588608 115.01332536 -81.28982544 114.96681213 C-87.750583 114.94912935 -87.750583 114.94912935 -93.32025146 117.81027222 C-95.04423764 119.79723323 -96.50793907 121.83888794 -98 124 C-101.0832635 125.54163175 -103.60878099 125.29747535 -107 125 C-109.61321414 122.80827201 -109.94109015 121.35345908 -110.5 118 C-110 115 -110 115 -107.875 112.75 C-104.96104186 110.97628635 -102.2776508 109.91469325 -99 109 C-102.33539541 105.06594388 -105.71925128 101.19256873 -109.1875 97.375 C-128.62779578 75.75296248 -145.41045158 52.51769474 -153 24 C-153.33773438 22.73542969 -153.67546875 21.47085937 -154.0234375 20.16796875 C-155.86249611 11.97656551 -156.29434728 3.99880103 -156.375 -4.375 C-156.39602783 -5.87281006 -156.39602783 -5.87281006 -156.41748047 -7.40087891 C-156.34921819 -17.92202107 -153.87317788 -26.88280802 -147 -35 C-110.8909893 -69.89014114 -30.79199522 -21.33516315 0 0 Z " fill="#861F1F" transform="translate(498,1227)"/>
<path d="M0 0 C2.52383753 2.20396941 4.87970977 4.4922276 7.21484375 6.89453125 C8.00761719 7.67828125 8.80039063 8.46203125 9.6171875 9.26953125 C18.19864063 18.17939273 23.64930225 28.17003399 23.484375 40.64453125 C22.39919605 53.72958755 13.50268795 64.35622113 5.46484375 74.15234375 C4.02052369 75.80799336 4.02052369 75.80799336 4.21484375 77.89453125 C4.96507812 78.05308594 5.7153125 78.21164062 6.48828125 78.375 C7.51179688 78.60832031 8.5353125 78.84164063 9.58984375 79.08203125 C11.08644531 79.41267578 11.08644531 79.41267578 12.61328125 79.75 C15.67516431 80.72302791 18.06191653 81.81725908 20.87109375 83.31640625 C26.49791827 86.21888074 32.18546126 87.59842229 38.33984375 88.95703125 C54.87083862 92.64090464 54.87083862 92.64090464 60.52734375 98.14453125 C65.01836236 105.46322825 66.51251116 112.51141047 64.78125 121.02734375 C62.39046162 128.60064856 57.23778568 134.11797633 50.27734375 137.76953125 C39.8678861 142.42556878 29.52555935 143.60689629 18.5546875 139.86328125 C3.51984296 133.63850421 -4.17057374 120.36568302 -10.5234375 106.109375 C-12.65241309 100.68477157 -12.12108099 96.54929756 -10.26171875 91.16796875 C-9.98666504 90.36536621 -9.71161133 89.56276367 -9.42822266 88.73583984 C-9.21601074 88.12820801 -9.00379883 87.52057617 -8.78515625 86.89453125 C-9.33341064 87.06581543 -9.88166504 87.23709961 -10.4465332 87.41357422 C-48.29742299 99.17669829 -48.29742299 99.17669829 -67.47265625 89.70703125 C-68.56578125 89.10890625 -69.65890625 88.51078125 -70.78515625 87.89453125 C-71.14243409 102.27496417 -66.85238644 115.28654497 -62.6171875 128.89697266 C-59.58625999 139.81649377 -59.46815043 150.70098163 -64.78515625 160.89453125 C-71.49735745 170.7715527 -81.65170626 178.0096311 -93.359375 180.42578125 C-100.37109211 181.37069872 -106.49896487 180.9411393 -112.26171875 176.55078125 C-117.02876141 172.32010221 -118.2805806 166.92571815 -119.97265625 160.95703125 C-120.30724854 159.84489258 -120.64184082 158.73275391 -120.98657227 157.58691406 C-121.94748214 154.36342795 -122.87358416 151.13227336 -123.78515625 147.89453125 C-124.14383789 146.63261963 -124.14383789 146.63261963 -124.50976562 145.34521484 C-128.55797636 130.98652276 -131.92141369 116.90027015 -124.78515625 102.89453125 C-121.42726188 97.11772817 -117.1005396 93.26122315 -111.73828125 89.33984375 C-109.69256888 87.90046691 -109.69256888 87.90046691 -107.78515625 85.89453125 C-108.70748047 85.42273437 -108.70748047 85.42273437 -109.6484375 84.94140625 C-110.45667969 84.5134375 -111.26492188 84.08546875 -112.09765625 83.64453125 C-112.89816406 83.226875 -113.69867187 82.80921875 -114.5234375 82.37890625 C-117.55274683 80.3907585 -119.43770909 78.49717039 -120.21875 74.89453125 C-120.22541826 71.48038272 -120.07714756 69.40234222 -118.34765625 66.39453125 C-114.51970759 64.15378081 -111.10622935 64.01173137 -106.78515625 64.89453125 C-102.46367987 68.06361393 -100.17958324 72.19435975 -97.78515625 76.89453125 C-97.78515625 77.55453125 -97.78515625 78.21453125 -97.78515625 78.89453125 C-96.30015625 78.39953125 -96.30015625 78.39953125 -94.78515625 77.89453125 C-92.5594129 77.67001667 -90.32934106 77.48670247 -88.09765625 77.33203125 C-86.91816406 77.24824219 -85.73867187 77.16445312 -84.5234375 77.078125 C-83.61980469 77.01753906 -82.71617188 76.95695312 -81.78515625 76.89453125 C-82.25566406 75.74597656 -82.72617188 74.59742188 -83.2109375 73.4140625 C-90.4655614 55.43681693 -96.42757163 36.34960874 -89.8515625 17.171875 C-84.12539514 4.35239305 -73.3031853 -2.07444162 -60.78515625 -7.10546875 C-39.85942717 -14.73469502 -18.30308542 -13.8364138 0 0 Z " fill="#861F1F" transform="translate(1770.78515625,1058.10546875)"/>
<path d="M0 0 C0.83660156 0.71800781 1.67320312 1.43601562 2.53515625 2.17578125 C17.4201033 14.06238996 35.45198367 22.00751356 52.34765625 30.61328125 C123.99814232 67.10839973 123.99814232 67.10839973 136.66015625 96.61328125 C138.47410701 104.1109444 138.43057998 110.46430298 134.92578125 117.44921875 C131.45430463 122.77895638 125.87591582 127.15851099 119.59765625 128.48828125 C91.02234663 131.57936042 63.12306319 110.86064902 41.73828125 94.04296875 C31.85342707 86.05904806 22.42774745 77.59021909 13.14160156 68.92333984 C10.7258414 66.67795113 8.28520253 64.45996853 5.84765625 62.23828125 C0.12176699 56.99776539 -5.53093769 51.68162445 -11.16357422 46.34106445 C-14.34057189 43.33561171 -17.52164287 40.35134279 -20.828125 37.48828125 C-30.69024838 28.91933696 -30.69024838 28.91933696 -31.6640625 21.4921875 C-31.92656913 16.70370455 -31.0587216 13.43000322 -28.40234375 9.48828125 C-22.31496625 2.88949805 -8.82855893 -5.5555322 0 0 Z " fill="#861F1F" transform="translate(167.40234375,1012.51171875)"/>
<path d="M0 0 C6.21757574 5.13058697 9.28750456 11.54819679 10.67578125 19.3828125 C10.87300781 20.40375 11.07023437 21.4246875 11.2734375 22.4765625 C12.90795242 39.15988724 1.37335933 57.58294597 -8.7109375 70.31640625 C-21.9410472 86.12849663 -38.37644227 99.06578077 -59.32421875 102.3828125 C-66.28942206 102.84715939 -72.68651983 102.18370235 -78.37890625 97.80078125 C-83.38810691 93.03060884 -85.60140743 88.69730345 -85.94921875 81.6953125 C-85.80074229 72.29887363 -81.44494071 64.60821555 -77.32421875 56.3828125 C-76.64513167 54.978832 -75.96798081 53.57391299 -75.29296875 52.16796875 C-73.37222622 48.20277968 -71.36652972 44.28654693 -69.32421875 40.3828125 C-69.0101709 39.77453613 -68.69612305 39.16625977 -68.37255859 38.53955078 C-58.06548158 18.7634139 -44.71419875 6.3388045 -23.88671875 -1.9921875 C-16.05979508 -3.365332 -7.04449846 -4.31418963 0 0 Z " fill="#861F1F" transform="translate(1893.32421875,932.6171875)"/>
<path d="M0 0 C1.20269531 0.67385742 1.20269531 0.67385742 2.4296875 1.36132812 C9.03689424 5.14981522 14.77438121 9.30961762 20.375 14.5 C21.24640625 15.29148437 22.1178125 16.08296875 23.015625 16.8984375 C31.92820597 25.35738411 37.90134494 35.09463765 42.375 46.5 C42.69597656 47.3146875 43.01695312 48.129375 43.34765625 48.96875 C45.34065791 54.97556429 45.73638216 60.90671951 45.875 67.1875 C45.9056958 67.98349609 45.9363916 68.77949219 45.96801758 69.59960938 C45.96990854 75.66580224 44.26958331 79.8283899 40.375 84.5 C36.62736871 86.86692502 32.70190601 87.11483567 28.375 86.5 C13.20310278 82.9253629 2.17260829 76.40778797 -8.625 65.5 C-9.28242188 64.86449219 -9.93984375 64.22898437 -10.6171875 63.57421875 C-22.09302995 51.64886173 -32.20719833 30.49651529 -34 14.0625 C-33.41293704 8.48540187 -31.34133381 4.37236415 -27.5625 0.25 C-16.75589671 -6.18797643 -10.62174605 -5.95702925 0 0 Z " fill="#861F1F" transform="translate(203.625,1385.5)"/>
<path d="M0 0 C6.48969927 24.96928596 -1.98004037 46.97219201 -12.0390625 69.6171875 C-12.3589917 70.33777344 -12.6789209 71.05835938 -13.00854492 71.80078125 C-13.60733537 73.13779141 -14.21371664 74.47144043 -14.8293457 75.80078125 C-16.51885368 79.5296271 -17.82709723 82.88937615 -18 87 C-16.81320968 89.7276431 -16.81320968 89.7276431 -15 92.1875 C-13.25 94.73046875 -13.25 94.73046875 -12 97 C-12.495 98.485 -12.495 98.485 -13 100 C-13.74765625 99.55527344 -14.4953125 99.11054687 -15.265625 98.65234375 C-16.25046875 98.08644531 -17.2353125 97.52054688 -18.25 96.9375 C-19.22453125 96.36902344 -20.1990625 95.80054688 -21.203125 95.21484375 C-23.82255768 93.829965 -23.82255768 93.829965 -26.15625 94.11328125 C-28.3778143 95.18170306 -29.60678864 96.41534654 -31.25 98.25 C-35.83028678 102.9865439 -40.45586995 107.2111676 -47.3125 107.5 C-51 107 -51 107 -52.9375 105.6875 C-58.48616849 96.87490887 -55.17502461 79.77125963 -53.1015625 70.1015625 C-45.81459593 41.58068188 -28.98129379 17.94507937 -4.58203125 1.51171875 C-2 0 -2 0 0 0 Z " fill="#861F1F" transform="translate(1407,1585)"/>
<path d="M0 0 C7.49902114 3.78925803 11.41964569 9.79673256 14.36010742 17.45361328 C16.05530933 22.8759997 16.91524351 28.44079926 17.75048828 34.04736328 C18.05932109 36.10383213 18.39346754 38.15501365 18.73046875 40.20703125 C20.92971169 54.14546792 23.17525108 71.706556 16.4375 84.625 C14.03456619 87.8760281 12.31858474 89.15836973 8.33984375 89.8359375 C0.70519439 89.97864123 -5.9202502 87.67663322 -12.5 83.875 C-24.66073948 70.67191142 -24.17798235 54.32965596 -24.07861328 37.45092773 C-24.06244891 34.17715332 -24.07857025 30.90459767 -24.09765625 27.63085938 C-24.09567509 25.52864314 -24.09183407 23.42642765 -24.0859375 21.32421875 C-24.09201019 20.35634933 -24.09808289 19.38847992 -24.1043396 18.39128113 C-24.04278065 12.41255649 -23.24091035 7.93352609 -20.6875 2.5 C-14.82711174 -3.21745196 -7.28160657 -2.78341275 0 0 Z " fill="#861F1F" transform="translate(745.6875,1216.5)"/>
<path d="M0 0 C2.49521356 1.70230684 4.89552387 3.4801739 7.28125 5.33203125 C7.89484375 5.780625 8.5084375 6.22921875 9.140625 6.69140625 C15.19537799 11.41300262 20.84819052 18.46591229 24.28125 25.33203125 C24.78363635 31.78576363 25.22566685 37.89145629 21.28125 43.33203125 C17.5977664 47.46199771 14.29313792 47.82325042 9.05200195 48.26733398 C4.53971153 48.3726963 0.31198471 47.61794392 -4.09375 46.70703125 C-5.0113208 46.52317871 -5.9288916 46.33932617 -6.87426758 46.14990234 C-13.89362884 44.66724451 -20.33551506 42.6598763 -26.71875 39.33203125 C-27.585 38.89117188 -28.45125 38.4503125 -29.34375 37.99609375 C-40.83673846 31.65392634 -48.28930287 22.64671708 -52.71875 10.33203125 C-53.60368669 5.75319752 -53.83961124 1.72059145 -51.82421875 -2.57421875 C-40.6689401 -17.79613744 -12.77188137 -7.83562262 0 0 Z " fill="#861F1F" transform="translate(116.71875,543.66796875)"/>
<path d="M0 0 C7.33631444 4.05547817 10.85679397 9.85957669 13.26953125 17.7265625 C15.02542215 25.07856613 15.06656717 32.29024653 15.125 39.8125 C15.15400391 41.04548828 15.18300781 42.27847656 15.21289062 43.54882812 C15.27480151 52.46875783 14.05480257 58.73868805 8.625 65.875 C2.48265156 70.51588549 -4.59865131 71.94691517 -12.1875 71 C-18.20812142 69.85641828 -21.83416615 67.04505772 -25.6484375 62.31640625 C-31.85490704 52.97519702 -32.38399631 43.13800095 -32.4375 32.25 C-32.458125 31.21617187 -32.47875 30.18234375 -32.5 29.1171875 C-32.54580439 20.02501558 -31.3042331 11.10863576 -25.1875 4 C-17.16536124 -1.9760062 -9.4499537 -4.25390665 0 0 Z " fill="#861F1F" transform="translate(826.1875,295)"/>
<path d="M0 0 C3.10238203 2.56480853 5.48269499 4.9000588 6.87109375 8.734375 C7.11768211 11.4927239 7.25211703 14.10191892 7.24609375 16.859375 C7.24367676 17.99681152 7.24367676 17.99681152 7.24121094 19.15722656 C7.06220006 27.38119672 4.91735335 34.85606705 -1.12890625 40.734375 C-8.43970616 46.20547691 -15.97850646 48.72829774 -25.12890625 47.734375 C-31.07974767 46.44213024 -35.56531137 43.71637443 -39.12890625 38.734375 C-42.30988844 31.07109973 -41.90569529 22.99923839 -39.28125 15.22265625 C-35.42820133 6.90268336 -29.4323261 2.8078298 -21.05859375 -0.390625 C-14.30622675 -2.40733194 -6.36503614 -3.78398479 0 0 Z " fill="#861F1F" transform="translate(1651.12890625,1004.265625)"/>
<path d="M0 0 C12.87918204 5.64368651 21.22616879 21.58345572 26.80859375 33.734375 C29.40906974 40.86223706 30.41321593 47.80747628 30.4375 55.375 C30.44330078 56.64972168 30.44330078 56.64972168 30.44921875 57.95019531 C30.28247037 67.38190044 27.83138622 76.06090921 25 85 C12.47081072 79.67149422 5.03146576 65.08167794 0.04296875 53.21484375 C-2.44029628 45.56043507 -3.3615983 38.08623667 -3.3125 30.0625 C-3.31121094 29.17022705 -3.30992188 28.2779541 -3.30859375 27.35864258 C-3.17785285 18.07849011 -1.74647286 9.09621282 0 0 Z " fill="#861F1F" transform="translate(1150,605)"/>
<path d="M0 0 C5.32072271 2.80547197 8.17975906 5.55184411 10.25 11.1875 C12.39773132 18.62478675 11.59774421 24.82937974 8.4375 31.8125 C4.48674545 37.79507118 -0.34164492 40.54624348 -7.0625 42.5625 C-14.78628714 43.33487871 -20.75444599 42.86545523 -27.5625 38.8125 C-33.08400631 33.67727191 -35.36444121 27.77189221 -35.66015625 20.3671875 C-35.40541501 13.70315673 -33.36828092 9.41189769 -28.5625 4.8125 C-20.31411675 -2.27051534 -10.29445499 -3.34715739 0 0 Z " fill="#861F1F" transform="translate(672.5625,1445.1875)"/>
<path d="M0 0 C3.83414373 4.17245053 5.88224632 8.30111237 6.5625 13.9375 C5.87030533 19.27728749 4.47116599 22.22971432 0.25 25.625 C-5.91928654 28.95641473 -11.8175715 28.33129485 -18.625 28 C-19.57632813 27.96455078 -20.52765625 27.92910156 -21.5078125 27.89257812 C-30.05114169 27.50052124 -38.07109021 26.95476665 -44.875 21.3125 C-47.98521827 16.46484946 -47.57883161 10.84683911 -46.875 5.3125 C-45.15446486 1.19121816 -42.03001469 -0.83781495 -38 -2.5 C-25.81366918 -6.33643748 -11.22720491 -6.58988114 0 0 Z " fill="#861F1F" transform="translate(565.875,845.6875)"/>
<path d="M0 0 C7.12896087 3.08021917 11.7554899 9.7847223 15 16.625 C18.73987 26.57685745 18.24436446 36.93761151 14.1484375 46.68359375 C10.3632287 54.31838565 10.3632287 54.31838565 7 56 C1.81711232 56.25914438 -2.20942469 56.2566131 -7 54 C-8.56872823 51.74570161 -9.64956001 49.89859524 -10.75 47.4375 C-11.19484741 46.49076416 -11.19484741 46.49076416 -11.64868164 45.52490234 C-15.85023325 36.30198417 -17.58726509 27.45893948 -14.5625 17.625 C-11.72947987 10.31825384 -6.49845166 4.33230111 0 0 Z " fill="#861F1F" transform="translate(1113,604)"/>
<path d="M0 0 C4.52135878 2.67300456 7.22813701 6.05743482 9 11 C10.77742428 18.43169429 9.92878744 24.40524965 6 31 C2.73820172 34.70350013 -0.65141471 36.78775748 -5.63671875 37.23828125 C-13.23387099 37.42310314 -18.7300189 36.78947172 -24.52734375 31.64453125 C-30.04287047 25.68136758 -30.47909066 18.62625171 -30.3046875 10.875 C-29.8332326 6.42639993 -28.88876923 4.46652308 -26 1 C-17.84134653 -5.04678963 -8.90270234 -3.72809981 0 0 Z " fill="#861F1F" transform="translate(1600,1189)"/>
<path d="M0 0 C4.4204071 4.4204071 6.09213377 8.64601621 6.375 14.8125 C6.22087339 20.91410037 4.52132763 25.36979686 0.28125 29.79296875 C-5.70479735 35.13221861 -10.60496296 35.34672115 -18.53515625 35.28125 C-23.25393076 34.89821532 -25.35985256 33.99301012 -29 31 C-32.83534706 25.88620392 -33.4136546 21.30823269 -33 15 C-31.73657906 9.5840117 -30.05983389 4.94383863 -26 1 C-17.64978818 -3.8709569 -8.62783903 -4.81241688 0 0 Z " fill="#861F1F" transform="translate(1322,891)"/>
<path d="M0 0 C5.22959612 2.98834064 7.52681129 6.14293387 9.4375 11.875 C9.8720907 18.28521286 9.47183125 24.33942229 5.11328125 29.41796875 C0.55482682 33.49784528 -3.89971959 35.14426636 -9.9375 34.875 C-16.27204082 33.93812674 -20.44037276 30.54149902 -24.359375 25.6171875 C-28.52309568 19.60953338 -30.07399938 15.29174103 -29.5625 7.875 C-28.30057177 3.85260377 -26.75221897 1.64334368 -23.1875 -0.5 C-15.72926323 -3.74926859 -7.32757032 -3.34448926 0 0 Z " fill="#861F1F" transform="translate(1615.5625,1262.125)"/>
<path d="M0 0 C5.13450955 3.58221596 8.41023499 7.72090496 9.6875 13.875 C10.21208876 20.14196219 10.45225106 25.55242091 6.6875 30.875 C1.80549911 35.39085082 -2.19169088 36.30003618 -8.67578125 36.21484375 C-14.58517327 35.45318878 -18.17811021 32.32934588 -21.75 27.75 C-24.63893266 21.83026746 -25.25732566 14.75678728 -23.1875 8.5 C-21.57053273 4.88778412 -19.37749223 2.40361859 -16.3125 -0.125 C-10.91330143 -1.92473286 -5.37692735 -1.82612627 0 0 Z " fill="#861F1F" transform="translate(1062.3125,760.125)"/>
<path d="M0 0 C3.18957902 5.08339156 3.13937183 9.36189828 2 15.1875 C-0.06474203 20.80343542 -2.96744205 26.04415333 -6 31.1875 C-6.97066406 32.89099609 -6.97066406 32.89099609 -7.9609375 34.62890625 C-10 37.1875 -10 37.1875 -12.3671875 37.87890625 C-17.57171969 37.61138357 -21.55088644 37.19065166 -26 34.1875 C-29.51784556 28.91073166 -28.48035567 22.32267559 -28 16.1875 C-26.64123701 9.47504811 -24.38362985 4.38611662 -18.78515625 0.2734375 C-12.39563102 -3.61340717 -6.37228411 -3.84992165 0 0 Z " fill="#861F1F" transform="translate(899,1564.8125)"/>
<path d="M0 0 C4.40228895 2.50797067 7.01233571 5.47450712 8.625 10.3125 C9.14353818 15.2513636 9.17699525 19.16604834 7 23.6875 C3.19798907 27.88972261 0.48367027 30.10265013 -5.25 30.75 C-11.17964399 30.40986746 -15.7960244 28.65630902 -20.3125 24.8125 C-23.39460014 21.07662104 -23.55459186 18.14311057 -23.625 13.4375 C-23.66367187 11.89449219 -23.66367187 11.89449219 -23.703125 10.3203125 C-23.19896184 5.69881683 -20.92333229 2.26944357 -17.375 -0.6875 C-11.59787021 -2.61320993 -5.5650706 -2.58937619 0 0 Z " fill="#861F1F" transform="translate(604.375,618.6875)"/>
<path d="M0 0 C2.125 2.125 2.125 2.125 4 5 C4.639375 5.86625 5.27875 6.7325 5.9375 7.625 C8.15350174 14.66406436 4.11782651 22.59808772 1.109375 29.0546875 C-0.87692374 32.53770431 -3.41299461 35.20649731 -7 37 C-16.48881789 38.0543131 -16.48881789 38.0543131 -20.6875 35.125 C-23.59867923 28.19362089 -22.34171334 22.24963235 -19.875 15.3125 C-17.161109 8.82974067 -14.45388026 3.6212091 -7.9375 0.5625 C-2.54843517 -0.46944858 -2.54843517 -0.46944858 0 0 Z " fill="#861F1F" transform="translate(1831,1291)"/>
<path d="M0 0 C3.88947279 2.16912906 6.64936833 4.21884106 9 8 C9.78573809 11.76926531 9.77512001 15.22811318 9 19 C5.77370596 23.46921059 0.64418674 26.51923877 -4.75 27.5 C-9.45386911 26.77632783 -12.63592692 24.30345915 -16 21 C-18.61551379 16.83205222 -18.65617047 12.78423027 -18 8 C-16.09586499 3.88706839 -14.5998232 2.35083998 -10.6875 0.0625 C-6.49319638 -1.14602816 -4.19800254 -1.14490978 0 0 Z " fill="#861F1F" transform="translate(1927,1020)"/>
<path d="M0 0 C2.8125 2.25 2.8125 2.25 5 5 C5.61875 5.763125 6.2375 6.52625 6.875 7.3125 C8.44303362 11.05835809 8.23588069 14.21559514 7 18 C2.74299462 23.80500734 -2.80951385 25.44991618 -9.625 26.625 C-13.95360418 25.82340663 -15.22492694 24.11947996 -17.8359375 20.7265625 C-20.37186287 16.96522353 -20.60296147 13.43548366 -20 9 C-17.60629091 4.46905066 -14.99689308 1.28438275 -10.25 -0.75 C-6.70979224 -1.14335642 -3.41016358 -0.99180056 0 0 Z " fill="#861F1F" transform="translate(1904,1069)"/>
<path d="M0 0 C3.80484111 3.17070093 5.20814 5.58506698 6.0625 10.4375 C6.3654055 15.43544068 4.91130114 17.98712546 2 22 C1.4225 22.804375 0.845 23.60875 0.25 24.4375 C-3.05938476 26.73568386 -6.16256256 26.60747079 -10 26 C-14.6358881 24.30611781 -17.55412525 22.32731687 -20 18 C-20.8603489 13.25052291 -20.47784714 9.92156235 -18.25 5.625 C-12.96980736 -0.53522475 -7.83891313 -2.18664419 0 0 Z " fill="#861F1F" transform="translate(1594,1100)"/>
<path d="M0 0 C3.00947682 2.00631788 4.50462948 3.46435138 5.625 6.9375 C6.21782074 10.19801408 6.15548194 12.60672215 4.9375 15.6875 C1.41879822 19.88724083 -1.21428073 22.60653643 -6.6875 23.8125 C-12.77784022 23.49320061 -17.49792781 18.70758886 -22 15 C-20.7064619 11.33070627 -19.20236085 8.72187896 -16.625 5.8125 C-15.74714844 4.80123047 -15.74714844 4.80123047 -14.8515625 3.76953125 C-10.50204374 -0.38728731 -5.8094714 -0.98377858 0 0 Z " fill="#861F1F" transform="translate(1692,1294)"/>
<path d="M0 0 C3.08984375 1.96875 3.08984375 1.96875 5.9375 4.5 C6.89527344 5.3353125 7.85304688 6.170625 8.83984375 7.03125 C9.90912109 8.00578125 9.90912109 8.00578125 11 9 C9.55097031 12.31419098 7.7319786 14.56592592 5.1875 17.125 C4.52105469 17.80820312 3.85460938 18.49140625 3.16796875 19.1953125 C0.28148104 21.59811849 -2.31887888 22.90608262 -6.09765625 23.1171875 C-9.65733595 22.67841982 -11.56314538 22.34724341 -14.4375 20.0625 C-17.29508612 16.29048633 -17.32039344 13.72580319 -17 9 C-15.35624185 4.84225879 -12.91238705 2.99008077 -9.109375 0.69921875 C-5.88031144 -0.37115602 -3.38236597 -0.35967157 0 0 Z " fill="#861F1F" transform="translate(1440,504)"/>
<path d="M0 0 C2.8799073 2.12950892 5.46263175 4.47581288 8 7 C6.55048874 13.03963026 4.68178056 17.76518287 -0.25 21.875 C-3.95609404 23.39112938 -7.05856724 23.82179671 -11 23 C-14.79000117 20.44586878 -16.30939021 17.85059826 -17.5625 13.5625 C-18.16723574 10.06201043 -18.03933449 9.09064035 -16.5625 5.6875 C-11.59518615 0.47787816 -7.31303164 -2.43767721 0 0 Z " fill="#861F1F" transform="translate(1820,739)"/>
<path d="M0 0 C4.36148984 2.18074492 7.11427129 4.45206604 9 9 C9 13.99538572 5.694299 17.99334871 3 22 C-3.77842362 21.75877496 -8.77750893 21.55294093 -14 17 C-16.09505106 13.85742341 -16.61134753 11.83915695 -16.5 8.07421875 C-15.68923379 4.7108058 -13.8575519 3.08904655 -11.1328125 1.0703125 C-7.3894345 -0.8082325 -4.05510193 -0.86420205 0 0 Z " fill="#861F1F" transform="translate(373,944)"/>
<path d="M0 0 C0.78246094 0.37382813 1.56492187 0.74765625 2.37109375 1.1328125 C2.70109375 2.1228125 3.03109375 3.1128125 3.37109375 4.1328125 C1.1006759 5.75839569 -1.17022214 7.38330052 -3.44140625 9.0078125 C-4.40530273 9.69810547 -4.40530273 9.69810547 -5.38867188 10.40234375 C-6.01064453 10.84707031 -6.63261719 11.29179688 -7.2734375 11.75 C-7.84425049 12.15847168 -8.41506348 12.56694336 -9.00317383 12.98779297 C-12.7087174 15.5976442 -14.98563306 16.65394519 -19.62109375 16.5 C-21.62890625 16.1328125 -21.62890625 16.1328125 -24.62890625 14.1953125 C-26.93450334 10.66486696 -27.4954989 8.5270444 -27.23046875 4.36328125 C-26.30004213 0.91345267 -24.67057283 -0.83086492 -21.8046875 -2.8984375 C-14.95487973 -5.94826215 -6.67315905 -2.15921325 0 0 Z " fill="#861F1F" transform="translate(1631.62890625,1345.8671875)"/>
<path d="M0 0 C4.03046127 5.98462431 4.03046127 5.98462431 3.90625 10.125 C2.74003851 15.11155946 0.70700844 19.36720352 -1.5625 23.9375 C-1.98724609 24.81212891 -2.41199219 25.68675781 -2.84960938 26.58789062 C-3.891213 28.72961493 -4.9414422 30.86661853 -6 33 C-9.93848792 31.03075604 -10.75306239 25.20534281 -12.1875 21.25 C-12.56841797 20.24710937 -12.94933594 19.24421875 -13.34179688 18.2109375 C-13.69693359 17.23898437 -14.05207031 16.26703125 -14.41796875 15.265625 C-14.74563232 14.37649414 -15.0732959 13.48736328 -15.41088867 12.57128906 C-16.0805847 9.64827268 -15.87709434 7.85048017 -15 5 C-11.02796314 0.87519249 -5.52197924 0 0 0 Z " fill="#861F1F" transform="translate(286,367)"/>
<path d="M0 0 C6.18779162 0.03387477 11.95573981 2.33397213 17.75 4.3125 C17.75 5.3025 17.75 6.2925 17.75 7.3125 C15.66888453 9.31154331 13.60960481 11.12718724 11.375 12.9375 C10.77171875 13.44023438 10.1684375 13.94296875 9.546875 14.4609375 C5.02874615 18.19592402 2.71571337 19.70879738 -3.2734375 19.578125 C-5.25 19.3125 -5.25 19.3125 -7.75 17.875 C-9.97939069 14.06645757 -10.16971527 10.6121689 -9.25 6.3125 C-6.8125 3.3125 -6.8125 3.3125 -4.25 1.3125 C-3.25 0.3125 -3.25 0.3125 0 0 Z " fill="#861F1F" transform="translate(549.25,1441.6875)"/>
<path d="M0 0 C-1.44867115 4.51063517 -3.79369102 7.30135371 -7 10.75 C-7.886875 11.71421875 -8.77375 12.6784375 -9.6875 13.671875 C-12.52484638 16.52839264 -13.3030437 16.92109929 -17.3125 17.375 C-21 17 -21 17 -23.9375 14.9375 C-26.54673278 11.22131998 -26.70429978 9.46056526 -26 5 C-20.28270809 -5.29112543 -10.23853082 -1.66673757 0 0 Z " fill="#861F1F" transform="translate(1158,1303)"/>
<path d="M0 0 C3.03451849 2.22712792 5.09781063 4.65207319 7.42578125 7.60546875 C8.21597656 8.59933594 9.00617188 9.59320313 9.8203125 10.6171875 C10.41199219 11.37644531 11.00367188 12.13570313 11.61328125 12.91796875 C8.2038906 15.78495634 4.44301109 17.42631165 0.36328125 19.10546875 C-0.28640625 19.37810547 -0.93609375 19.65074219 -1.60546875 19.93164062 C-3.19713771 20.59873717 -4.79164978 21.2590432 -6.38671875 21.91796875 C-9.19032649 15.81010902 -11.43690045 10.68580635 -10.38671875 3.91796875 C-7.3797435 0.7484543 -4.35112442 -1.97260469 0 0 Z " fill="#861F1F" transform="translate(1231.38671875,428.08203125)"/>
<path d="M0 0 C3.8215064 5.03790101 7.38761494 10.53975102 7 17 C3.74727141 20.65931966 -0.41694691 22.41676348 -5 24 C-8.17616353 24 -8.94560888 23.04998103 -11.3125 20.875 C-13.5740698 17.02195516 -13.06299415 15.292861 -12 11 C-9.78515625 7.91015625 -9.78515625 7.91015625 -7.0625 5.0625 C-6.16660156 4.10472656 -5.27070312 3.14695312 -4.34765625 2.16015625 C-2 0 -2 0 0 0 Z " fill="#861F1F" transform="translate(1647,948)"/>
<path d="M0 0 C4.12325455 0.86455337 5.96754066 1.81693583 8.875 4.8125 C10.38389469 7.83028937 10.37526276 9.43572637 9.875 12.8125 C7.78220778 15.72148118 5.3997905 18.27482791 2.875 20.8125 C-2.30109824 17.53092138 -6.98489729 14.35325781 -11.125 9.8125 C-5.00973655 0.18096007 -5.00973655 0.18096007 0 0 Z " fill="#861F1F" transform="translate(1534.125,1584.1875)"/>
<path d="M0 0 C5.0825 1.78333333 5.0825 1.78333333 6.5625 4.25 C8.2218791 11.10876694 8.2218791 11.10876694 5.9375 15.0625 C0.30535714 20.25 0.30535714 20.25 -3.4375 20.25 C-5.12890625 17.984375 -5.12890625 17.984375 -7 15 C-7.62003906 14.02546875 -8.24007812 13.0509375 -8.87890625 12.046875 C-10.19687184 9.68180391 -10.97897441 7.88809243 -11.4375 5.25 C-4.17164905 -0.91017798 -4.17164905 -0.91017798 0 0 Z " fill="#861F1F" transform="translate(972.4375,782.75)"/>
<path d="M0 0 C4.571279 0.54855348 8.67435795 1.41744803 13 3 C12.52412884 9.02770138 9.80277043 13.76678289 7 19 C5.51988629 18.69201674 4.04092675 18.378482 2.5625 18.0625 C1.32693359 17.80146484 1.32693359 17.80146484 0.06640625 17.53515625 C-2 17 -2 17 -3 16 C-2.86369127 10.43231263 -2.05123536 5.19646291 0 0 Z " fill="#861F1F" transform="translate(820,1655)"/>
<path d="M0 0 C3.20646383 2.77893532 3.53450501 5.90364407 4 10 C3.34 10 2.68 10 2 10 C1.67 10.99 1.34 11.98 1 13 C-2.48868651 15.32579101 -3.89718519 15.41865457 -8 15 C-10.375 14 -10.375 14 -12 12 C-12.45338908 8.82627645 -12.69044625 7.01010339 -12 4 C-8.52656455 -0.21022478 -5.30810901 -0.78638652 0 0 Z " fill="#861F1F" transform="translate(1897,786)"/>
<path d="M0 0 C3.81684226 1.55500981 6.19195732 4.03595495 9 7 C7.47291037 10.43595166 5.40072955 13.11912454 3 16 C-0.07099684 15.65877813 -1.8342915 15.11774025 -4.375 13.3125 C-6 11 -6 11 -6.0625 8.0625 C-4.77476492 4.35079301 -2.93286836 2.5568596 0 0 Z " fill="#861F1F" transform="translate(608,1690)"/>
<path d="M0 0 C2.375 0.3125 2.375 0.3125 5 1 C5.66 1.99 6.32 2.98 7 4 C5.02 6.31 3.04 8.62 1 11 C-1.375 10.6875 -1.375 10.6875 -4 10 C-4.66 9.01 -5.32 8.02 -6 7 C-4.02 4.69 -2.04 2.38 0 0 Z " fill="#861F1F" transform="translate(689,1405)"/>
<path d="M0 0 C3.13668142 1.61586618 4.34415612 4.05539821 6.0625 7.0625 C6.0625 7.7225 6.0625 8.3825 6.0625 9.0625 C3.0625 11.0625 3.0625 11.0625 1.125 11.125 C-2.25092733 9.38588592 -3.24108502 6.39474371 -4.9375 3.0625 C-2.55339404 0.08236755 -2.55339404 0.08236755 0 0 Z " fill="#861F1F" transform="translate(649.9375,1407.9375)"/>
<path d="M0 0 C1.65 0.33 3.3 0.66 5 1 C5.93065133 3.60582371 6.14917407 4.64198224 5.0625 7.25 C4.711875 7.8275 4.36125 8.405 4 9 C2.02 9 0.04 9 -2 9 C-1.34 6.03 -0.68 3.06 0 0 Z " fill="#861F1F" transform="translate(960,862)"/>
<path d="M0 0 C2.31 0.33 4.62 0.66 7 1 C6.67 2.98 6.34 4.96 6 7 C4.1875 7.625 4.1875 7.625 2 8 C1.01 7.34 0.02 6.68 -1 6 C-0.67 4.02 -0.34 2.04 0 0 Z " fill="#861F1F" transform="translate(1790,1373)"/>
<path d="M0 0 C0.1875 2.875 0.1875 2.875 0 6 C-3 8 -3 8 -5.0625 7.875 C-7.57283417 6.7413007 -8.02691202 5.51381062 -9 3 C-2.25 0 -2.25 0 0 0 Z " fill="#861F1F" transform="translate(1401,1322)"/>
<path d="M0 0 C0 1.98 0 3.96 0 6 C-2.31 6.33 -4.62 6.66 -7 7 C-7.66 5.35 -8.32 3.7 -9 2 C-5.62902617 0.50178941 -3.79557881 0 0 0 Z " fill="#861F1F" transform="translate(1338,383)"/>
<path d="M0 0 C2.9375 0.375 2.9375 0.375 6 1 C6.33 1.66 6.66 2.32 7 3 C5.5625 5.625 5.5625 5.625 4 8 C2.02 7.34 0.04 6.68 -2 6 C-1.34 4.02 -0.68 2.04 0 0 Z " fill="#861F1F" transform="translate(267,1335)"/>
<path d="M0 0 C1.2065625 0.0309375 1.2065625 0.0309375 2.4375 0.0625 C3.5 1.875 3.5 1.875 4.4375 4.0625 C4.1075 5.0525 3.7775 6.0425 3.4375 7.0625 C1.1275 6.4025 -1.1825 5.7425 -3.5625 5.0625 C-3.5625 0.08689024 -3.5625 0.08689024 0 0 Z " fill="#861F1F" transform="translate(1360.5625,1185.9375)"/>
<path d="M0 0 C1.67542976 0.28604898 3.34385343 0.61781233 5 1 C5 2.98 5 4.96 5 7 C2.23723823 6.47731534 -0.3260876 5.89130413 -3 5 C-1.125 1.125 -1.125 1.125 0 0 Z " fill="#861F1F" transform="translate(947,693)"/>
<path d="M0 0 C0.99 0.33 1.98 0.66 3 1 C3.33 2.65 3.66 4.3 4 6 C2.02 6.33 0.04 6.66 -2 7 C-2.33 5.35 -2.66 3.7 -3 2 C-2.01 1.34 -1.02 0.68 0 0 Z " fill="#861F1F" transform="translate(1446,802)"/>
<path d="M0 0 C2.64 0.66 5.28 1.32 8 2 C8 2.66 8 3.32 8 4 C6.02 4.66 4.04 5.32 2 6 C1.34 4.02 0.68 2.04 0 0 Z " fill="#861F1F" transform="translate(609,1446)"/>
</svg>
